<?xml version="1.0" standalone="no"?>
<!DOCTYPE svg PUBLIC "-//W3C//DTD SVG 20010904//EN"
 "http://www.w3.org/TR/2001/REC-SVG-20010904/DTD/svg10.dtd">
<svg version="1.0" xmlns="http://www.w3.org/2000/svg"
 width="310.000000pt" height="189.000000pt" viewBox="0 0 310.000000 189.000000"
 preserveAspectRatio="xMidYMid meet">

<g transform="translate(0.000000,189.000000) scale(0.100000,-0.100000)"
fill="#000000" stroke="none">
<path d="M1659 1358 c-66 -79 -72 -88 -66 -94 5 -6 167 73 167 82 0 9 -43 64
-51 64 -3 0 -26 -24 -50 -52z"/>
<path d="M2130 1158 c-19 -126 -25 -134 -39 -53 -19 111 -14 105 -85 105 l-62
0 -20 -125 -20 -124 20 -20 20 -21 -27 -28 c-19 -19 -30 -45 -36 -79 l-8 -50
56 -11 c31 -5 59 -8 64 -5 4 2 7 16 7 31 1 15 7 56 14 92 l13 65 38 -80 38
-80 18 40 c10 22 20 49 23 60 9 33 16 12 35 -100 10 -59 24 -111 31 -115 16
-10 102 -22 109 -15 3 3 -14 23 -37 43 -78 69 -93 160 -42 257 l30 56 -18 117
-18 117 -46 3 -45 3 -13 -83z"/>
<path d="M1073 1209 c-49 -15 -63 -24 -63 -39 0 -14 6 -19 22 -17 21 2 23 -4
33 -83 7 -60 17 -97 35 -125 31 -50 38 -135 16 -189 -9 -21 -16 -53 -16 -71 0
-29 3 -32 23 -28 12 3 28 10 35 16 9 7 12 4 12 -12 0 -12 6 -21 15 -21 12 0
15 19 15 109 l0 110 167 -81 c91 -45 173 -81 182 -81 8 0 24 -10 33 -21 18
-21 18 -20 16 32 l-3 53 -55 19 c-39 13 -66 31 -95 63 -30 33 -58 51 -112 72
-40 16 -73 30 -73 33 0 2 36 43 80 90 l81 86 -53 53 c-29 29 -56 53 -59 53 -4
0 -34 -37 -66 -82 l-58 -83 -9 83 c-10 93 -6 91 -103 61z"/>
<path d="M385 1204 c-80 -18 -215 -77 -215 -95 0 -6 16 -38 36 -71 27 -45 40
-58 53 -53 44 19 28 47 233 -401 l37 -81 45 11 c25 7 48 14 51 18 3 3 -8 62
-26 131 l-31 126 55 51 c66 60 92 100 106 158 12 55 -1 102 -40 146 -57 65
-176 89 -304 60z m204 -145 c39 -14 51 -35 51 -90 0 -35 -6 -47 -39 -80 -21
-22 -43 -39 -48 -39 -13 0 -67 190 -56 200 7 7 26 13 54 19 3 0 20 -4 38 -10z"/>
<path d="M1619 1181 c-61 -12 -127 -57 -150 -103 -27 -54 -23 -140 9 -185 61
-86 216 -91 337 -11 l48 32 -43 38 c-43 38 -43 38 -64 19 -22 -20 -91 -43
-100 -33 -3 3 30 43 75 89 44 46 79 89 76 96 -5 18 -77 54 -117 60 -19 2 -51
1 -71 -2z m74 -88 c14 -17 10 -23 -48 -88 -63 -69 -63 -70 -84 -51 -32 29 -29
95 5 130 33 32 101 37 127 9z"/>
<path d="M2560 1157 c0 -16 7 -26 20 -30 18 -5 20 -11 14 -46 -6 -35 -2 -47
20 -80 54 -77 40 -207 -30 -272 -17 -16 -24 -33 -24 -59 0 -36 1 -38 42 -44
25 -4 44 -3 48 4 3 5 14 60 25 120 10 61 22 113 27 116 4 3 8 -61 8 -143 0
-81 3 -158 6 -170 4 -15 18 -24 47 -32 23 -5 42 -9 43 -8 5 6 177 544 178 556
1 14 -19 22 -86 35 l-37 7 -27 -121 c-15 -66 -31 -120 -34 -120 -4 0 -20 61
-35 135 -25 117 -31 136 -49 140 -12 3 -43 10 -71 15 -27 6 -58 13 -67 16 -14
4 -18 0 -18 -19z"/>
<path d="M2385 1011 c-113 -51 -158 -199 -83 -268 73 -66 164 -57 239 23 63
67 74 149 28 208 -44 56 -112 70 -184 37z m45 -31 c-11 -11 -20 -24 -20 -30 0
-16 38 -50 55 -50 9 0 27 12 40 26 l25 27 0 -35 c0 -49 -26 -78 -76 -85 -54
-7 -104 32 -104 81 0 46 37 85 83 86 15 0 15 -2 -3 -20z"/>
<path d="M1366 981 c-16 -17 -16 -19 4 -24 16 -4 20 0 20 19 0 29 -2 29 -24 5z"/>
<path d="M860 974 c-163 -70 -173 -300 -16 -330 114 -21 252 112 231 223 -19
101 -117 150 -215 107z m52 -34 c-26 -25 -28 -43 -6 -64 24 -25 60 -19 83 12
l20 27 1 -42 c0 -53 -33 -83 -92 -83 -94 0 -121 125 -34 160 39 16 51 11 28
-10z"/>
</g>
</svg>
